REM DIRINDEX 1\2,1\3,1\4,1\5,1\6
REM DIRNAME cjc129,folder01,folder02,folder03,folder04,folder05
TITLE ""
FILE "DISC5Track06.mp3" MP3
  TRACK 01 AUDIO
    TITLE "0:"
    INDEX 01 00:00:00
  TRACK 02 AUDIO
    TITLE "3:cjc129_4024"
    INDEX 01 00:00:03
  TRACK 03 AUDIO
    TITLE "0:"
    INDEX 01 00:01:50
  TRACK 04 AUDIO
    TITLE "5:cjc129_4025"
    INDEX 01 00:02:08
  TRACK 05 AUDIO
    TITLE "0:"
    INDEX 01 00:04:33
  TRACK 06 AUDIO
    TITLE "4:cjc129_4026"
    INDEX 01 00:05:22
  TRACK 07 AUDIO
    TITLE "0:"
    INDEX 01 00:06:69
  TRACK 08 AUDIO
    TITLE "6:cjc129_4027"
    INDEX 01 00:07:27
  TRACK 09 AUDIO
    TITLE "0:"
    INDEX 01 00:11:23
  TRACK 10 AUDIO
    TITLE "3:cjc129_4028"
    INDEX 01 00:13:02
  TRACK 11 AUDIO
    TITLE "0:"
    INDEX 01 00:14:29
  TRACK 12 AUDIO
    TITLE "5:cjc129_4029"
    INDEX 01 00:14:62
  TRACK 13 AUDIO
    TITLE "0:"
    INDEX 01 00:17:51
  TRACK 14 AUDIO
    TITLE "4:cjc129_4030"
    INDEX 01 00:18:42
  TRACK 15 AUDIO
    TITLE "0:"
    INDEX 01 00:19:71
  TRACK 16 AUDIO
    TITLE "6:cjc129_4031"
    INDEX 01 00:20:30
  TRACK 17 AUDIO
    TITLE "0:"
    INDEX 01 00:24:65
  TRACK 18 AUDIO
    TITLE "3:cjc129_4032"
    INDEX 01 00:26:46
  TRACK 19 AUDIO
    TITLE "0:"
    INDEX 01 00:27:63
  TRACK 20 AUDIO
    TITLE "5:cjc129_4033"
    INDEX 01 00:29:36
  TRACK 21 AUDIO
    TITLE "0:"
    INDEX 01 00:30:69
  TRACK 22 AUDIO
    TITLE "4:cjc129_4034"
    INDEX 01 00:31:61
  TRACK 23 AUDIO
    TITLE "0:"
    INDEX 01 00:33:03
  TRACK 24 AUDIO
    TITLE "6:cjc129_4035"
    INDEX 01 00:33:32
  TRACK 25 AUDIO
    TITLE "0:"
    INDEX 01 00:36:09
  TRACK 26 AUDIO
    TITLE "3:cjc129_4036"
    INDEX 01 00:37:59
  TRACK 27 AUDIO
    TITLE "0:"
    INDEX 01 00:39:00
  TRACK 28 AUDIO
    TITLE "5:cjc129_4037"
    INDEX 01 00:40:32
  TRACK 29 AUDIO
    TITLE "0:"
    INDEX 01 00:44:71
  TRACK 30 AUDIO
    TITLE "4:cjc129_4038"
    INDEX 01 00:45:61
  TRACK 31 AUDIO
    TITLE "0:"
    INDEX 01 00:46:74
  TRACK 32 AUDIO
    TITLE "6:cjc129_4039"
    INDEX 01 00:47:32
  TRACK 33 AUDIO
    TITLE "0:"
    INDEX 01 00:51:24
  TRACK 34 AUDIO
    TITLE "3:cjc129_4040"
    INDEX 01 00:52:73
  TRACK 35 AUDIO
    TITLE "0:"
    INDEX 01 00:54:27
  TRACK 36 AUDIO
    TITLE "5:cjc129_4041"
    INDEX 01 00:54:58
  TRACK 37 AUDIO
    TITLE "0:"
    INDEX 01 00:58:71
  TRACK 38 AUDIO
    TITLE "4:cjc129_4042"
    INDEX 01 00:59:61
  TRACK 39 AUDIO
    TITLE "0:"
    INDEX 01 01:01:15
  TRACK 40 AUDIO
    TITLE "6:cjc129_4043"
    INDEX 01 01:01:46
  TRACK 41 AUDIO
    TITLE "0:"
    INDEX 01 01:05:62
  TRACK 42 AUDIO
    TITLE "3:cjc129_4044"
    INDEX 01 01:07:39
  TRACK 43 AUDIO
    TITLE "0:"
    INDEX 01 01:08:50
  TRACK 44 AUDIO
    TITLE "5:cjc129_4045"
    INDEX 01 01:09:07
  TRACK 45 AUDIO
    TITLE "0:"
    INDEX 01 01:11:66
  TRACK 46 AUDIO
    TITLE "4:cjc129_4046"
    INDEX 01 01:12:60
  TRACK 47 AUDIO
    TITLE "0:"
    INDEX 01 01:13:69
  TRACK 48 AUDIO
    TITLE "6:cjc129_4047"
    INDEX 01 01:14:27
  TRACK 49 AUDIO
    TITLE "0:"
    INDEX 01 01:18:64
  TRACK 50 AUDIO
    TITLE "3:cjc129_4048"
    INDEX 01 01:20:38
  TRACK 51 AUDIO
    TITLE "0:"
    INDEX 01 01:22:33
  TRACK 52 AUDIO
    TITLE "5:cjc129_4049"
    INDEX 01 01:22:66
  TRACK 53 AUDIO
    TITLE "0:"
    INDEX 01 01:24:69
  TRACK 54 AUDIO
    TITLE "4:cjc129_4050"
    INDEX 01 01:25:58
  TRACK 55 AUDIO
    TITLE "0:"
    INDEX 01 01:27:55
  TRACK 56 AUDIO
    TITLE "6:cjc129_4051"
    INDEX 01 01:28:16
  TRACK 57 AUDIO
    TITLE "0:"
    INDEX 01 01:32:47
  TRACK 58 AUDIO
    TITLE "3:cjc129_4052"
    INDEX 01 01:34:22
  TRACK 59 AUDIO
    TITLE "0:"
    INDEX 01 01:36:21
  TRACK 60 AUDIO
    TITLE "5:cjc129_4053"
    INDEX 01 01:36:50
  TRACK 61 AUDIO
    TITLE "0:"
    INDEX 01 01:40:54
  TRACK 62 AUDIO
    TITLE "4:cjc129_4054"
    INDEX 01 01:41:44
  TRACK 63 AUDIO
    TITLE "0:"
    INDEX 01 01:43:41
  TRACK 64 AUDIO
    TITLE "6:cjc129_4055"
    INDEX 01 01:43:72
  TRACK 65 AUDIO
    TITLE "0:"
    INDEX 01 01:49:69
